<?xml version="1.0" encoding="utf-8"?>
<!-- Generator: Adobe Illustrator 20.1.0, SVG Export Plug-In . SVG Version: 6.00 Build 0)  -->
<svg version="1.1" id="Layer_1" xmlns="http://www.w3.org/2000/svg" xmlns:xlink="http://www.w3.org/1999/xlink" x="0px" y="0px"
	 viewBox="0 0 89.3 120" style="enable-background:new 0 0 89.3 120;" xml:space="preserve">
<style type="text/css">
	
		.st0{clip-path:url(#SVGID_2_);fill:none;stroke:#1895EA;stroke-width:7;stroke-linecap:round;stroke-linejoin:round;stroke-miterlimit:10;}
	
		.st1{clip-path:url(#SVGID_2_);fill:none;stroke:#1895EA;stroke-width:5;stroke-linecap:round;stroke-linejoin:round;stroke-miterlimit:10;}
</style>
<g>
	<defs>
		<rect id="SVGID_1_" y="0" width="89.3" height="120"/>
	</defs>
	<clipPath id="SVGID_2_">
		<use xlink:href="#SVGID_1_"  style="overflow:visible;"/>
	</clipPath>
	<rect x="13.7" y="92.1" class="st0" width="58.2" height="24.4"/>
	<path class="st0" d="M17.7,91.9c0,0-15.4-28.6-14.1-57.2C5,3.4,33.6,3.5,40.5,3.5S78.1,1,78.2,34.8"/>
	<path class="st0" d="M23.1,27.6c0,0-3.2,42.6,38.7,21.9"/>
	<line class="st0" x1="14.9" y1="40.6" x2="23.1" y2="39.2"/>
	<path class="st0" d="M66.9,91.4c0,0,30.3-30.2,14.2-51.5c-15.3-20.3-30.5,0.5-17.3,10.6"/>
	<line class="st1" x1="35.8" y1="108.2" x2="49.7" y2="100.4"/>
	<line class="st1" x1="49.7" y1="108.2" x2="35.8" y2="100.4"/>
</g>
</svg>
