<?xml version="1.0" encoding="utf-8"?>
<!-- Generator: Adobe Illustrator 20.1.0, SVG Export Plug-In . SVG Version: 6.00 Build 0)  -->
<svg version="1.1" id="Layer_1" xmlns="http://www.w3.org/2000/svg" xmlns:xlink="http://www.w3.org/1999/xlink" x="0px" y="0px"
	 viewBox="0 0 119.4 120" style="enable-background:new 0 0 119.4 120;" xml:space="preserve">
<style type="text/css">
	.st0{clip-path:url(#SVGID_2_);fill:none;stroke:#1895EA;stroke-width:7;stroke-linecap:round;stroke-miterlimit:10;}
	.st1{clip-path:url(#SVGID_2_);fill:none;stroke:#1895EA;stroke-width:7;stroke-linecap:square;stroke-miterlimit:10;}
	.st2{fill:none;stroke:#1895EA;stroke-width:5;stroke-linecap:round;stroke-linejoin:round;stroke-miterlimit:10;}
</style>
<g>
	<defs>
		<rect id="SVGID_1_" y="0" width="119.4" height="120"/>
	</defs>
	<clipPath id="SVGID_2_">
		<use xlink:href="#SVGID_1_"  style="overflow:visible;"/>
	</clipPath>
	<line class="st0" x1="3.5" y1="3.5" x2="115.9" y2="3.5"/>
	<line class="st0" x1="3.5" y1="74.4" x2="115.9" y2="74.4"/>
	<line class="st1" x1="9" y1="73.9" x2="9" y2="6.2"/>
	<line class="st1" x1="110.5" y1="73.9" x2="110.5" y2="6.2"/>
	<line class="st0" x1="59.7" y1="116.5" x2="59.7" y2="77.2"/>
	<line class="st0" x1="40.4" y1="116.2" x2="59.4" y2="97.7"/>
	<line class="st0" x1="79" y1="116.2" x2="60" y2="97.7"/>
</g>
<line class="st2" x1="49" y1="25.5" x2="92.9" y2="25.5"/>
<line class="st2" x1="49" y1="40.2" x2="92.9" y2="40.2"/>
<line class="st2" x1="49" y1="54.9" x2="92.9" y2="54.9"/>
<polyline class="st2" points="26.5,22.9 29.7,26.3 35.1,20.8 "/>
<polyline class="st2" points="26.5,38.1 29.7,41.6 35.1,36.1 "/>
<polyline class="st2" points="26.5,53.4 29.7,56.9 35.1,51.4 "/>
</svg>
